<svg width="40" height="40" viewBox="0 0 40 40" fill="none" xmlns="http://www.w3.org/2000/svg">
<g clip-path="url(#clip0_23_1508)">
<path d="M39.6101 20.4608C39.6101 19.1012 39.4998 17.7343 39.2647 16.3969H20.4V24.0985H31.2029C30.7546 26.5824 29.3142 28.7797 27.2051 30.176V35.1733H33.6501C37.4348 31.6899 39.6101 26.5457 39.6101 20.4608Z" fill="#4285F4"/>
<path d="M20.3998 40.0014C25.7939 40.0014 30.3429 38.2303 33.6572 35.1731L27.2123 30.1759C25.4191 31.3958 23.1042 32.0866 20.4072 32.0866C15.1895 32.0866 10.7654 28.5665 9.17809 23.8338H2.52734V28.9854C5.92253 35.739 12.8378 40.0014 20.3998 40.0014Z" fill="#34A853"/>
<path d="M9.17092 23.8338C8.33315 21.3498 8.33315 18.6602 9.17092 16.1762V11.0247H2.52753C-0.309143 16.676 -0.309143 23.334 2.52753 28.9853L9.17092 23.8338Z" fill="#FBBC04"/>
<path d="M20.3998 7.9161C23.2512 7.87201 26.007 8.94494 28.0721 10.9144L33.7822 5.20436C30.1665 1.80917 25.3677 -0.0574433 20.3998 0.00134778C12.8378 0.00134778 5.92253 4.2637 2.52734 11.0247L9.17074 16.1763C10.7507 11.4362 15.1821 7.9161 20.3998 7.9161Z" fill="#EA4335"/>
</g>
<defs>
<clipPath id="clip0_23_1508">
<rect width="40" height="40" fill="white"/>
</clipPath>
</defs>
</svg>
