<svg width="18" height="18" viewBox="0 0 18 18" fill="none" xmlns="http://www.w3.org/2000/svg">
<path d="M7.77817 6.01996C7.63496 6.12109 7.51925 6.25637 7.44154 6.41353C7.36383 6.57069 7.32658 6.74476 7.33317 6.91996C7.33317 7.14097 7.24537 7.35293 7.08909 7.50922C6.93281 7.6655 6.72085 7.75329 6.49984 7.75329C6.27882 7.75329 6.06686 7.6655 5.91058 7.50922C5.7543 7.35293 5.6665 7.14097 5.6665 6.91996C5.6665 5.93996 6.11984 5.17663 6.78317 4.68329C7.42317 4.20663 8.23317 3.99496 8.99984 3.99496C9.7665 3.99496 10.5748 4.20663 11.2165 4.68163C11.8798 5.17496 12.3332 5.93829 12.3332 6.91829C12.3332 7.63329 12.1082 8.17663 11.7215 8.59496C11.4165 8.92496 11.0248 9.14996 10.7548 9.30496L10.6698 9.35496C10.3582 9.53663 10.1765 9.66163 10.0532 9.82496C9.9465 9.96163 9.83317 10.1916 9.83317 10.665C9.83317 10.886 9.74537 11.0979 9.58909 11.2542C9.43281 11.4105 9.22085 11.4983 8.99984 11.4983C8.77882 11.4983 8.56686 11.4105 8.41058 11.2542C8.2543 11.0979 8.1665 10.886 8.1665 10.665C8.1665 9.88829 8.3665 9.28496 8.72984 8.80996C9.07317 8.36163 9.5165 8.09663 9.82984 7.91496L9.8765 7.88829C10.2048 7.69663 10.3732 7.59829 10.4965 7.46329C10.5798 7.37496 10.6665 7.24329 10.6665 6.91829C10.6734 6.74305 10.6363 6.56887 10.5585 6.41166C10.4808 6.25445 10.3649 6.11921 10.2215 6.01829C9.92484 5.79996 9.48317 5.66329 8.99984 5.66329C8.5165 5.66329 8.0765 5.79996 7.77817 6.02163V6.01996ZM8.99984 14C9.22085 14 9.43281 13.9122 9.58909 13.7559C9.74537 13.5996 9.83317 13.3876 9.83317 13.1666C9.83317 12.9456 9.74537 12.7336 9.58909 12.5774C9.43281 12.4211 9.22085 12.3333 8.99984 12.3333C8.77882 12.3333 8.56686 12.4211 8.41058 12.5774C8.2543 12.7336 8.1665 12.9456 8.1665 13.1666C8.1665 13.3876 8.2543 13.5996 8.41058 13.7559C8.56686 13.9122 8.77882 14 8.99984 14ZM0.666504 8.99996C0.666504 6.78982 1.54448 4.67021 3.10728 3.1074C4.67008 1.5446 6.7897 0.666626 8.99984 0.666626C11.21 0.666626 13.3296 1.5446 14.8924 3.1074C16.4552 4.67021 17.3332 6.78982 17.3332 8.99996C17.3332 11.2101 16.4552 13.3297 14.8924 14.8925C13.3296 16.4553 11.21 17.3333 8.99984 17.3333C6.7897 17.3333 4.67008 16.4553 3.10728 14.8925C1.54448 13.3297 0.666504 11.2101 0.666504 8.99996ZM8.99984 2.33329C7.23173 2.33329 5.53603 3.03567 4.28579 4.28591C3.03555 5.53616 2.33317 7.23185 2.33317 8.99996C2.33317 10.7681 3.03555 12.4638 4.28579 13.714C5.53603 14.9642 7.23173 15.6666 8.99984 15.6666C10.7679 15.6666 12.4636 14.9642 13.7139 13.714C14.9641 12.4638 15.6665 10.7681 15.6665 8.99996C15.6665 7.23185 14.9641 5.53616 13.7139 4.28591C12.4636 3.03567 10.7679 2.33329 8.99984 2.33329Z" fill="white"/>
</svg>
