<svg width="40" height="40" viewBox="0 0 40 40" fill="none" xmlns="http://www.w3.org/2000/svg">
<path d="M12.5792 36.2512C27.6736 36.2512 35.9296 23.7456 35.9296 12.9008C35.9296 12.5456 35.9296 12.192 35.9056 11.84C37.5117 10.6783 38.8982 9.23983 40 7.59203C38.5023 8.25603 36.9134 8.69128 35.2864 8.88323C36.9997 7.85771 38.2819 6.24453 38.8944 4.34403C37.2835 5.30004 35.5211 5.97374 33.6832 6.33603C32.4459 5.02032 30.8094 4.14909 29.027 3.85717C27.2446 3.56524 25.4157 3.86888 23.8233 4.72111C22.2309 5.57335 20.9637 6.92665 20.2179 8.57161C19.4721 10.2166 19.2892 12.0615 19.6976 13.8208C16.4348 13.6572 13.2429 12.8092 10.3291 11.332C7.41526 9.85486 4.84461 7.78146 2.784 5.24643C1.73455 7.05309 1.41312 9.19181 1.88517 11.2271C2.35721 13.2625 3.58724 15.0414 5.3248 16.2016C4.01872 16.1634 2.74108 15.811 1.6 15.1744V15.2784C1.60052 17.1732 2.25642 19.0094 3.45645 20.4757C4.65648 21.942 6.32677 22.948 8.184 23.3232C6.9758 23.6528 5.70812 23.701 4.4784 23.464C5.00302 25.0946 6.02405 26.5204 7.39873 27.5423C8.77342 28.5641 10.433 29.1308 12.1456 29.1632C10.4441 30.5007 8.49552 31.4895 6.41146 32.0732C4.32739 32.6569 2.14869 32.824 0 32.5648C3.75306 34.9732 8.11987 36.2507 12.5792 36.2448" fill="#1DA1F2"/>
</svg>
