<svg width="42" height="44" viewBox="0 0 42 44" fill="none" xmlns="http://www.w3.org/2000/svg">
<g clip-path="url(#clip0_1467_4)">
<path d="M35.1698 31.9046C32.1735 35.7804 27.4608 38.2779 22.1591 38.2779C13.1047 38.2779 5.76505 30.9894 5.76505 22C5.76505 13.0106 13.1047 5.72209 22.1591 5.72209C26.2428 5.72209 29.9763 7.20477 32.8469 9.65642L35.7207 4.5998C31.9729 1.71663 27.2682 0 22.1591 0C9.92047 0 0 9.84926 0 22C0 34.1507 9.92047 44 22.1591 44C30.8488 44 38.37 39.0335 42 31.805L35.1698 31.9046Z" fill="url(#paint0_linear_1467_4)"/>
<path d="M23.5314 12.3009L20.5748 17.3844H6.43527C6.98455 15.5302 7.85862 13.8152 8.99221 12.3009H23.5314Z" fill="url(#paint1_linear_1467_4)"/>
<path d="M22.971 26.6567H37.8716C37.2953 28.5867 36.3639 30.365 35.157 31.922H13.5027L20.266 20.0431L24.7685 12.3009H31.3455L22.971 26.6567Z" fill="url(#paint2_linear_1467_4)"/>
</g>
<defs>
<linearGradient id="paint0_linear_1467_4" x1="49.7192" y1="23.3855" x2="0.373873" y2="17.8089" gradientUnits="userSpaceOnUse">
<stop stop-color="#001973"/>
<stop offset="1" stop-color="#00C4FF"/>
</linearGradient>
<linearGradient id="paint1_linear_1467_4" x1="26.6735" y1="15.0027" x2="9.11463" y2="8.01138" gradientUnits="userSpaceOnUse">
<stop stop-color="#001973"/>
<stop offset="1" stop-color="#00C4FF"/>
</linearGradient>
<linearGradient id="paint2_linear_1467_4" x1="42.3504" y1="22.7293" x2="13.9676" y2="18.5558" gradientUnits="userSpaceOnUse">
<stop stop-color="#001973"/>
<stop offset="1" stop-color="#00C4FF"/>
</linearGradient>
<clipPath id="clip0_1467_4">
<rect width="42" height="44" fill="white"/>
</clipPath>
</defs>
</svg>
