<svg width="189" height="44" viewBox="0 0 189 44" fill="none" xmlns="http://www.w3.org/2000/svg">
<g clip-path="url(#clip0_1446_3)">
<path d="M35.1698 31.9046C32.1735 35.7804 27.4608 38.2779 22.1591 38.2779C13.1047 38.2779 5.76505 30.9894 5.76505 22C5.76505 13.0106 13.1047 5.72209 22.1591 5.72209C26.2428 5.72209 29.9763 7.20477 32.8469 9.65642L35.7207 4.5998C31.9729 1.71663 27.2682 0 22.1591 0C9.92047 0 0 9.84926 0 22C0 34.1507 9.92047 44 22.1591 44C30.8488 44 38.37 39.0335 42 31.805L35.1698 31.9046Z" fill="url(#paint0_linear_1446_3)"/>
<path d="M23.5314 12.3009L20.5748 17.3844H6.43527C6.98455 15.5302 7.85862 13.8152 8.99221 12.3009H23.5314Z" fill="url(#paint1_linear_1446_3)"/>
<path d="M22.971 26.6567H37.8716C37.2953 28.5867 36.3639 30.365 35.157 31.922H13.5027L20.266 20.0431L24.7685 12.3009H31.3455L22.971 26.6567Z" fill="url(#paint2_linear_1446_3)"/>
</g>
<path d="M54.84 31H65.46V28.52H58.48L65.38 17.98V16.2H55.5V18.66H61.74L54.84 29.22V31ZM74.1392 31.28C76.0592 31.28 77.6392 30.54 78.8592 29.12L77.2992 27.26C76.5192 28.12 75.5192 28.72 74.2592 28.72C71.8992 28.72 70.3992 26.8 70.3992 23.56C70.3992 20.4 72.0792 18.48 74.2992 18.48C75.4392 18.48 76.2792 18.98 77.0392 19.72L78.5992 17.82C77.6392 16.82 76.1392 15.94 74.2592 15.94C70.4992 15.94 67.3792 18.78 67.3792 23.66C67.3792 28.6 70.3992 31.28 74.1392 31.28ZM81.8442 31H90.8242V28.52H84.8042V16.2H81.8442V31ZM99.138 31H102.098V25.74H104.078C107.258 25.74 109.778 24.24 109.778 20.86C109.778 17.34 107.258 16.2 103.998 16.2H99.138V31ZM102.098 23.4V18.56H103.778C105.818 18.56 106.898 19.12 106.898 20.86C106.898 22.54 105.918 23.4 103.878 23.4H102.098ZM115.598 31.28C116.298 31.28 116.758 31.16 117.098 31.04L116.738 28.86C116.538 28.9 116.458 28.9 116.358 28.9C116.078 28.9 115.778 28.68 115.778 27.98V15.06H112.838V27.86C112.838 29.94 113.538 31.28 115.598 31.28ZM122.486 31.28C123.766 31.28 124.886 30.66 125.866 29.82H125.946L126.166 31H128.566V24.48C128.566 21.22 127.106 19.54 124.266 19.54C122.486 19.54 120.906 20.2 119.586 21L120.646 22.96C121.666 22.34 122.686 21.9 123.726 21.9C125.106 21.9 125.566 22.72 125.626 23.82C121.126 24.32 119.186 25.58 119.186 27.96C119.186 29.88 120.486 31.28 122.486 31.28ZM123.446 28.98C122.586 28.98 121.986 28.6 121.986 27.74C121.986 26.72 122.886 25.98 125.626 25.64V27.9C124.906 28.6 124.286 28.98 123.446 28.98ZM135.755 31.28C136.755 31.28 137.535 31.06 138.135 30.86L137.655 28.72C137.335 28.84 136.915 28.98 136.535 28.98C135.555 28.98 135.015 28.38 135.015 27.1V22.12H137.795V19.82H135.015V16.78H132.575L132.255 19.82L130.515 19.94V22.12H132.075V27.1C132.075 29.6 133.095 31.28 135.755 31.28ZM141.173 31H144.113V18.86C144.113 17.62 144.593 17.08 145.473 17.08C145.853 17.08 146.273 17.18 146.653 17.34L147.213 15.14C146.713 14.96 145.953 14.78 145.073 14.78C142.273 14.78 141.173 16.58 141.173 18.9V31ZM139.673 22.12H146.233V19.82H141.353L139.673 19.94V22.12ZM153.082 31.28C155.882 31.28 158.442 29.12 158.442 25.42C158.442 21.7 155.882 19.54 153.082 19.54C150.262 19.54 147.702 21.7 147.702 25.42C147.702 29.12 150.262 31.28 153.082 31.28ZM153.082 28.9C151.542 28.9 150.702 27.52 150.702 25.42C150.702 23.3 151.542 21.94 153.082 21.94C154.602 21.94 155.442 23.3 155.442 25.42C155.442 27.52 154.602 28.9 153.082 28.9ZM161.521 31H164.461V24.34C165.081 22.72 166.141 22.12 167.001 22.12C167.481 22.12 167.781 22.2 168.181 22.3L168.681 19.78C168.341 19.62 167.981 19.54 167.381 19.54C166.221 19.54 165.001 20.32 164.201 21.8H164.141L163.901 19.82H161.521V31ZM170.852 31H173.792V23.3C174.552 22.46 175.292 22.06 175.912 22.06C176.992 22.06 177.492 22.64 177.492 24.4V31H180.432V23.3C181.232 22.46 181.932 22.06 182.572 22.06C183.652 22.06 184.132 22.64 184.132 24.4V31H187.072V24.02C187.072 21.22 185.992 19.54 183.612 19.54C182.152 19.54 181.072 20.42 180.032 21.48C179.512 20.24 178.572 19.54 176.952 19.54C175.512 19.54 174.472 20.34 173.532 21.3H173.472L173.232 19.82H170.852V31Z" fill="white"/>
<defs>
<linearGradient id="paint0_linear_1446_3" x1="49.7192" y1="23.3855" x2="0.373873" y2="17.8089" gradientUnits="userSpaceOnUse">
<stop stop-color="#001973"/>
<stop offset="1" stop-color="#00C4FF"/>
</linearGradient>
<linearGradient id="paint1_linear_1446_3" x1="26.6735" y1="15.0027" x2="9.11463" y2="8.01138" gradientUnits="userSpaceOnUse">
<stop stop-color="#001973"/>
<stop offset="1" stop-color="#00C4FF"/>
</linearGradient>
<linearGradient id="paint2_linear_1446_3" x1="42.3504" y1="22.7293" x2="13.9676" y2="18.5558" gradientUnits="userSpaceOnUse">
<stop stop-color="#001973"/>
<stop offset="1" stop-color="#00C4FF"/>
</linearGradient>
<clipPath id="clip0_1446_3">
<rect width="42" height="44" fill="white"/>
</clipPath>
</defs>
</svg>
